G04 #@! TF.FileFunction,Copper,L1,Top,Signal*
%FSLAX46Y46*%
G04 Gerber Fmt 4.6, Leading zero omitted, Abs format (unit mm)*
G04 Created by KiCad (PCBNEW 4.0.7) date 06/01/18 20:23:33*
%MOMM*%
%LPD*%
G01*
G04 APERTURE LIST*
%ADD10C,0.100000*%
%ADD11R,1.651000X0.998220*%
%ADD12C,2.200000*%
%ADD13C,1.700000*%
%ADD14O,1.700000X1.700000*%
%ADD15C,1.016000*%
%ADD16C,0.304800*%
G04 APERTURE END LIST*
D10*
D11*
X149062440Y-112575340D03*
X149062440Y-115770660D03*
X154213560Y-115770660D03*
X154213560Y-112575340D03*
X171033440Y-60378340D03*
X171033440Y-63573660D03*
X176184560Y-63573660D03*
X176184560Y-60378340D03*
X149770440Y-53139340D03*
X149770440Y-56334660D03*
X154921560Y-56334660D03*
X154921560Y-53139340D03*
D12*
X198882000Y-73025000D03*
X203962000Y-73025000D03*
D11*
X95087440Y-90096340D03*
X95087440Y-93291660D03*
X100238560Y-93291660D03*
X100238560Y-90096340D03*
X102199440Y-80317340D03*
X102199440Y-83512660D03*
X107350560Y-83512660D03*
X107350560Y-80317340D03*
X106136440Y-94668340D03*
X106136440Y-97863660D03*
X111287560Y-97863660D03*
X111287560Y-94668340D03*
X126964440Y-94541340D03*
X126964440Y-97736660D03*
X132115560Y-97736660D03*
X132115560Y-94541340D03*
X149443440Y-78793340D03*
X149443440Y-81988660D03*
X154594560Y-81988660D03*
X154594560Y-78793340D03*
X173192440Y-94541340D03*
X173192440Y-97736660D03*
X178343560Y-97736660D03*
X178343560Y-94541340D03*
X192877440Y-94668340D03*
X192877440Y-97863660D03*
X198028560Y-97863660D03*
X198028560Y-94668340D03*
X196560440Y-80317340D03*
X196560440Y-83512660D03*
X201711560Y-83512660D03*
X201711560Y-80317340D03*
X203799440Y-90096340D03*
X203799440Y-93291660D03*
X208950560Y-93291660D03*
X208950560Y-90096340D03*
X127980440Y-60378340D03*
X127980440Y-63573660D03*
X133131560Y-63573660D03*
X133131560Y-60378340D03*
X184876440Y-106733340D03*
X184876440Y-109928660D03*
X190027560Y-109928660D03*
X190027560Y-106733340D03*
X114137440Y-106733340D03*
X114137440Y-109928660D03*
X119288560Y-109928660D03*
X119288560Y-106733340D03*
D13*
X153416000Y-88392000D03*
D14*
X153416000Y-90932000D03*
X150876000Y-88392000D03*
X150876000Y-90932000D03*
D15*
X154305000Y-69342000D03*
X154559000Y-80391000D03*
X154940000Y-54737000D03*
X119253000Y-108331000D03*
X154178000Y-118999000D03*
X189992000Y-108331000D03*
X176149000Y-61976000D03*
X133096000Y-61976000D03*
X119380000Y-88900000D03*
X100203000Y-91821000D03*
X103124000Y-95885000D03*
X130175000Y-97663000D03*
X208915000Y-91821000D03*
X107442000Y-82042000D03*
X111379000Y-96266000D03*
X122555000Y-97155000D03*
X181610000Y-97282000D03*
X197866000Y-96393000D03*
X201549000Y-82042000D03*
X149479000Y-80391000D03*
X149733000Y-54622739D03*
X122555000Y-83820000D03*
X114173000Y-108331000D03*
X150622000Y-117602000D03*
X184912000Y-108331000D03*
X171069000Y-61976000D03*
X128016000Y-61849000D03*
X97282000Y-86995000D03*
X189484000Y-79248000D03*
X192913000Y-82677000D03*
X203835000Y-91694000D03*
X102362000Y-81915000D03*
X94996000Y-91694000D03*
X106299000Y-96139000D03*
X122682000Y-95123000D03*
X181483000Y-95250000D03*
X192913000Y-96139000D03*
X196723000Y-81661000D03*
X116205000Y-89281000D03*
X189992000Y-104521000D03*
X188214000Y-98552000D03*
X169291000Y-58547000D03*
X115316000Y-90932000D03*
X107823000Y-84719772D03*
X113538000Y-82550000D03*
X112350000Y-83166200D03*
X103886000Y-87376000D03*
X113665000Y-84780800D03*
X104013000Y-85344000D03*
D16*
X154559000Y-80391000D02*
X154559000Y-81953100D01*
X154559000Y-81953100D02*
X154594560Y-81988660D01*
X154940000Y-54737000D02*
X154940000Y-56316220D01*
X154940000Y-56316220D02*
X154921560Y-56334660D01*
X119253000Y-108331000D02*
X119253000Y-109893100D01*
X119253000Y-109893100D02*
X119288560Y-109928660D01*
X154178000Y-118999000D02*
X154178000Y-115806220D01*
X154178000Y-115806220D02*
X154213560Y-115770660D01*
X189992000Y-108331000D02*
X189992000Y-109893100D01*
X189992000Y-109893100D02*
X190027560Y-109928660D01*
X176149000Y-61976000D02*
X176149000Y-63538100D01*
X176149000Y-63538100D02*
X176184560Y-63573660D01*
X133096000Y-61976000D02*
X133096000Y-63538100D01*
X133096000Y-63538100D02*
X133131560Y-63573660D01*
X107350560Y-83512660D02*
X107350560Y-82133440D01*
X107350560Y-82133440D02*
X107442000Y-82042000D01*
X100238560Y-93291660D02*
X100238560Y-91856560D01*
X100238560Y-91856560D02*
X100203000Y-91821000D01*
X111287560Y-97863660D02*
X111287560Y-96357440D01*
X111287560Y-96357440D02*
X111379000Y-96266000D01*
X132115560Y-97736660D02*
X130248660Y-97736660D01*
X130248660Y-97736660D02*
X130175000Y-97663000D01*
X178343560Y-97736660D02*
X181155340Y-97736660D01*
X181155340Y-97736660D02*
X181610000Y-97282000D01*
X198028560Y-97863660D02*
X198028560Y-96555560D01*
X198028560Y-96555560D02*
X197866000Y-96393000D01*
X208915000Y-91821000D02*
X208915000Y-93256100D01*
X208915000Y-93256100D02*
X208950560Y-93291660D01*
X201711560Y-83512660D02*
X201711560Y-82204560D01*
X201711560Y-82204560D02*
X201549000Y-82042000D01*
X122555000Y-83820000D02*
X129701968Y-76673032D01*
X129701968Y-76673032D02*
X129701968Y-62518968D01*
X129701968Y-62518968D02*
X129032000Y-61849000D01*
X129032000Y-61849000D02*
X128016000Y-61849000D01*
X149479000Y-80391000D02*
X148760580Y-80391000D01*
X148760580Y-80391000D02*
X141238629Y-87912951D01*
X141238629Y-87912951D02*
X141238629Y-105881829D01*
X160571580Y-71755000D02*
X160571580Y-77970572D01*
X160571580Y-77970572D02*
X155701981Y-82840171D01*
X155701981Y-82840171D02*
X152646591Y-82840171D01*
X152646591Y-82840171D02*
X150197420Y-80391000D01*
X150197420Y-80391000D02*
X149479000Y-80391000D01*
X149479000Y-80391000D02*
X149479000Y-78828900D01*
X149479000Y-78828900D02*
X149443440Y-78793340D01*
X149770440Y-53139340D02*
X149770440Y-54585299D01*
X149770440Y-54585299D02*
X149733000Y-54622739D01*
X114137440Y-106733340D02*
X114137440Y-105929430D01*
X114137440Y-105929430D02*
X114185041Y-105881829D01*
X114185041Y-105881829D02*
X141238629Y-105881829D01*
X141238629Y-105881829D02*
X147932140Y-112575340D01*
X147932140Y-112575340D02*
X149062440Y-112575340D01*
X160571580Y-71755000D02*
X170350580Y-61976000D01*
X170350580Y-61976000D02*
X171069000Y-61976000D01*
X114137440Y-106733340D02*
X113007140Y-106733340D01*
X113007140Y-106733340D02*
X104958539Y-98684739D01*
X104958539Y-98684739D02*
X104958539Y-96761041D01*
X105580580Y-96139000D02*
X106299000Y-96139000D01*
X104958539Y-96761041D02*
X105580580Y-96139000D01*
X172014539Y-98517691D02*
X164250389Y-98517691D01*
X164250389Y-98517691D02*
X150192740Y-112575340D01*
X150192740Y-112575340D02*
X149062440Y-112575340D01*
X178739800Y-101727000D02*
X175223848Y-101727000D01*
X175223848Y-101727000D02*
X172014539Y-98517691D01*
X172014539Y-98517691D02*
X172014539Y-96523151D01*
X172014539Y-96523151D02*
X173192440Y-95345250D01*
X173192440Y-95345250D02*
X173192440Y-94541340D01*
X184876440Y-106733340D02*
X183746140Y-106733340D01*
X183746140Y-106733340D02*
X178739800Y-101727000D01*
X114173000Y-108331000D02*
X114173000Y-106768900D01*
X114173000Y-106768900D02*
X114137440Y-106733340D01*
X150622000Y-117602000D02*
X150622000Y-113808510D01*
X150622000Y-113808510D02*
X149388830Y-112575340D01*
X149388830Y-112575340D02*
X149062440Y-112575340D01*
X184912000Y-108331000D02*
X184912000Y-106768900D01*
X184912000Y-106768900D02*
X184876440Y-106733340D01*
X171069000Y-61976000D02*
X171069000Y-60413900D01*
X171069000Y-60413900D02*
X171033440Y-60378340D01*
X128016000Y-61849000D02*
X128016000Y-60413900D01*
X128016000Y-60413900D02*
X127980440Y-60378340D01*
X102362000Y-81915000D02*
X101643580Y-81915000D01*
X101643580Y-81915000D02*
X97282000Y-86276580D01*
X97282000Y-86276580D02*
X97282000Y-86995000D01*
X97282000Y-86995000D02*
X97282000Y-88228170D01*
X97282000Y-88228170D02*
X95413830Y-90096340D01*
X95413830Y-90096340D02*
X95087440Y-90096340D01*
X194594480Y-81153000D02*
X194594480Y-83185000D01*
X194594480Y-83185000D02*
X194594480Y-83505632D01*
X192913000Y-82677000D02*
X193420999Y-83184999D01*
X193420999Y-83184999D02*
X194594479Y-83184999D01*
X194594479Y-83184999D02*
X194594480Y-83185000D01*
X194031870Y-92710000D02*
X198571528Y-92710000D01*
X198571528Y-92710000D02*
X201185188Y-90096340D01*
X192877440Y-94668340D02*
X192877440Y-93864430D01*
X192877440Y-93864430D02*
X194031870Y-92710000D01*
X194594480Y-83505632D02*
X201185188Y-90096340D01*
X201185188Y-90096340D02*
X202669140Y-90096340D01*
X202669140Y-90096340D02*
X203799440Y-90096340D01*
X196560440Y-80317340D02*
X195430140Y-80317340D01*
X195430140Y-80317340D02*
X194594480Y-81153000D01*
X203835000Y-91694000D02*
X203835000Y-90131900D01*
X203835000Y-90131900D02*
X203799440Y-90096340D01*
X102362000Y-81915000D02*
X102362000Y-80479900D01*
X102362000Y-80479900D02*
X102199440Y-80317340D01*
X94996000Y-91694000D02*
X94996000Y-90187780D01*
X94996000Y-90187780D02*
X95087440Y-90096340D01*
X106299000Y-96139000D02*
X106299000Y-94830900D01*
X106299000Y-94830900D02*
X106136440Y-94668340D01*
X122682000Y-95123000D02*
X126382780Y-95123000D01*
X126382780Y-95123000D02*
X126964440Y-94541340D01*
X181483000Y-95250000D02*
X180764580Y-95250000D01*
X180764580Y-95250000D02*
X180621729Y-95392851D01*
X180621729Y-95392851D02*
X175174251Y-95392851D01*
X175174251Y-95392851D02*
X174322740Y-94541340D01*
X174322740Y-94541340D02*
X173192440Y-94541340D01*
X192877440Y-94668340D02*
X192877440Y-96103440D01*
X192877440Y-96103440D02*
X192913000Y-96139000D01*
X196723000Y-81661000D02*
X196723000Y-80479900D01*
X196723000Y-80479900D02*
X196560440Y-80317340D01*
X127980440Y-63573660D02*
X127654050Y-63573660D01*
X130916699Y-55483149D02*
X152251361Y-55483149D01*
X127654050Y-63573660D02*
X126802539Y-62722149D01*
X152251361Y-55483149D02*
X154595170Y-53139340D01*
X154595170Y-53139340D02*
X154921560Y-53139340D01*
X126802539Y-62722149D02*
X126802539Y-59597309D01*
X126802539Y-59597309D02*
X130916699Y-55483149D01*
X127980440Y-63573660D02*
X128306830Y-63573660D01*
X133457950Y-60378340D02*
X133131560Y-60378340D01*
X134309461Y-79050539D02*
X134309461Y-61229851D01*
X123571001Y-89788999D02*
X134309461Y-79050539D01*
X116712999Y-89788999D02*
X123571001Y-89788999D01*
X134309461Y-61229851D02*
X133457950Y-60378340D01*
X116205000Y-89281000D02*
X116712999Y-89788999D01*
X151970080Y-57404000D02*
X174014130Y-57404000D01*
X174014130Y-57404000D02*
X176184560Y-59574430D01*
X149770440Y-56334660D02*
X150900740Y-56334660D01*
X150900740Y-56334660D02*
X151970080Y-57404000D01*
X176184560Y-59574430D02*
X176184560Y-60378340D01*
X201711560Y-80317340D02*
X200581260Y-80317340D01*
X191589660Y-97863660D02*
X192877440Y-97863660D01*
X200581260Y-80317340D02*
X198749920Y-78486000D01*
X198749920Y-78486000D02*
X194691000Y-78486000D01*
X194691000Y-78486000D02*
X190246000Y-82931000D01*
X190246000Y-82931000D02*
X190246000Y-96520000D01*
X190246000Y-96520000D02*
X191589660Y-97863660D01*
X189992000Y-104521000D02*
X189992000Y-106697780D01*
X189992000Y-106697780D02*
X190027560Y-106733340D01*
X171033440Y-63573660D02*
X171033440Y-81371440D01*
X171033440Y-81371440D02*
X188214000Y-98552000D01*
X201766170Y-88392000D02*
X206115920Y-88392000D01*
X206115920Y-88392000D02*
X207820260Y-90096340D01*
X207820260Y-90096340D02*
X208950560Y-90096340D01*
X196560440Y-83512660D02*
X196886830Y-83512660D01*
X196886830Y-83512660D02*
X201766170Y-88392000D01*
X184876440Y-109928660D02*
X156056330Y-109928660D01*
X156056330Y-109928660D02*
X154213560Y-111771430D01*
X154213560Y-111771430D02*
X154213560Y-112575340D01*
X147774660Y-115770660D02*
X138737340Y-106733340D01*
X138737340Y-106733340D02*
X119288560Y-106733340D01*
X149062440Y-115770660D02*
X147774660Y-115770660D01*
X132115560Y-94541340D02*
X132115560Y-95345250D01*
X132115560Y-95345250D02*
X133985000Y-97214690D01*
X133985000Y-98552000D02*
X132715000Y-99822000D01*
X133985000Y-97214690D02*
X133985000Y-98552000D01*
X132715000Y-99822000D02*
X109982000Y-99822000D01*
X109982000Y-99822000D02*
X108023660Y-97863660D01*
X108023660Y-97863660D02*
X106136440Y-97863660D01*
X126964440Y-97736660D02*
X126964440Y-96932750D01*
X126964440Y-96932750D02*
X145955361Y-77941829D01*
X153464260Y-78793340D02*
X154594560Y-78793340D01*
X145955361Y-77941829D02*
X152612749Y-77941829D01*
X152612749Y-77941829D02*
X153464260Y-78793340D01*
X149443440Y-81988660D02*
X149443440Y-82792570D01*
X149443440Y-82792570D02*
X160340699Y-93689829D01*
X160340699Y-93689829D02*
X176361749Y-93689829D01*
X176361749Y-93689829D02*
X177213260Y-94541340D01*
X178343560Y-94541340D02*
X177213260Y-94541340D01*
X194437000Y-100076000D02*
X176662080Y-100076000D01*
X176662080Y-100076000D02*
X174322740Y-97736660D01*
X174322740Y-97736660D02*
X173192440Y-97736660D01*
X195326000Y-99187000D02*
X194437000Y-100076000D01*
X195326000Y-96240600D02*
X195326000Y-99187000D01*
X198028560Y-94668340D02*
X196898260Y-94668340D01*
X196898260Y-94668340D02*
X195326000Y-96240600D01*
X124459999Y-90424001D02*
X156337000Y-58547000D01*
X156337000Y-58547000D02*
X169291000Y-58547000D01*
X115316000Y-90932000D02*
X115823999Y-90424001D01*
X115823999Y-90424001D02*
X124459999Y-90424001D01*
X108541420Y-84719772D02*
X107823000Y-84719772D01*
X109523032Y-84719772D02*
X108541420Y-84719772D01*
X112200803Y-82042001D02*
X109523032Y-84719772D01*
X113030001Y-82042001D02*
X112200803Y-82042001D01*
X113538000Y-82550000D02*
X113030001Y-82042001D01*
X112857999Y-83674199D02*
X112350000Y-83166200D01*
X113831795Y-83674199D02*
X112857999Y-83674199D01*
X114525402Y-84367806D02*
X113831795Y-83674199D01*
X114525402Y-85193794D02*
X114525402Y-84367806D01*
X112343196Y-87376000D02*
X114525402Y-85193794D01*
X103886000Y-87376000D02*
X112343196Y-87376000D01*
X104013000Y-85344000D02*
X104520999Y-85851999D01*
X104520999Y-85851999D02*
X112593801Y-85851999D01*
X112593801Y-85851999D02*
X113665000Y-84780800D01*
X114137440Y-109928660D02*
X113811050Y-109928660D01*
X113811050Y-109928660D02*
X98298000Y-94415610D01*
X98298000Y-94415610D02*
X98298000Y-90906600D01*
X98298000Y-90906600D02*
X99108260Y-90096340D01*
X99108260Y-90096340D02*
X100238560Y-90096340D01*
X107350560Y-80317340D02*
X106220260Y-80317340D01*
X106220260Y-80317340D02*
X104769920Y-78867000D01*
X104769920Y-78867000D02*
X99695000Y-78867000D01*
X93909539Y-84652461D02*
X93909539Y-92440149D01*
X93909539Y-92440149D02*
X94761050Y-93291660D01*
X99695000Y-78867000D02*
X93909539Y-84652461D01*
X94761050Y-93291660D02*
X95087440Y-93291660D01*
X95413830Y-93291660D02*
X95087440Y-93291660D01*
X104394000Y-90678000D02*
X102199440Y-88483440D01*
X102199440Y-88483440D02*
X102199440Y-83512660D01*
X106970830Y-90678000D02*
X104394000Y-90678000D01*
X111287560Y-94668340D02*
X110961170Y-94668340D01*
X110961170Y-94668340D02*
X106970830Y-90678000D01*
X102525830Y-83512660D02*
X102199440Y-83512660D01*
M02*
