M48
INCH,TZ
T1C0.024
T2C0.039
T3C0.043
%
G90
G05
T1
X37400Y-36100
X38300Y-34250
X39450Y-36150
X40300Y-32250
X40600Y-37750
X40900Y-34400
X40950Y-33600
X41850Y-37850
X42300Y-32300
X42450Y-33354
X43850Y-37900
X44232Y-32743
X44700Y-32500
X44750Y-33378
X44950Y-42650
X45400Y-35800
X45750Y-35150
X46950Y-42650
X47000Y-35000
X48250Y-33000
X48250Y-38250
X48300Y-37450
X50400Y-24350
X51250Y-38450
X52400Y-24400
X58850Y-31650
X58950Y-21505
X59300Y-46300
X60700Y-46850
X60750Y-27300
X60850Y-31650
X61000Y-21550
X66650Y-23050
X67350Y-24400
X69350Y-24400
X71450Y-37500
X71500Y-38300
X72800Y-42650
X74100Y-38800
X74600Y-31200
X74800Y-41150
X74800Y-42650
X75950Y-32550
X75950Y-37850
X77450Y-32150
X77900Y-37950
X79350Y-32300
X80250Y-36100
X82250Y-36150
T2
X59400Y-34800
X59400Y-35800
X60400Y-34800
X60400Y-35800
T3
X78300Y-28750
X80300Y-28750
T0
M30
