G04 #@! TF.FileFunction,Paste,Bot*
%FSLAX46Y46*%
G04 Gerber Fmt 4.6, Leading zero omitted, Abs format (unit mm)*
G04 Created by KiCad (PCBNEW 4.0.7) date 06/01/18 20:23:33*
%MOMM*%
%LPD*%
G01*
G04 APERTURE LIST*
%ADD10C,0.100000*%
%ADD11R,1.000000X2.600000*%
%ADD12R,1.000000X2.000000*%
%ADD13R,1.550000X1.300000*%
%ADD14C,1.500000*%
%ADD15R,1.500000X1.500000*%
%ADD16R,0.800000X0.900000*%
%ADD17R,1.500000X0.600000*%
%ADD18R,1.000000X1.250000*%
%ADD19R,1.250000X1.000000*%
G04 APERTURE END LIST*
D10*
D11*
X186984000Y-74782000D03*
X189484000Y-74782000D03*
X191984000Y-74782000D03*
X191984000Y-71382000D03*
X189484000Y-71382000D03*
X186984000Y-71382000D03*
D12*
X119970000Y-75883000D03*
X118700000Y-75883000D03*
X117430000Y-75883000D03*
X116160000Y-75883000D03*
X114890000Y-75883000D03*
X113620000Y-75883000D03*
X112350000Y-75883000D03*
X111080000Y-75883000D03*
D13*
X191173000Y-60361000D03*
X183223000Y-60361000D03*
X191173000Y-64861000D03*
X183223000Y-64861000D03*
D14*
X97282000Y-80010000D03*
X94742000Y-80010000D03*
X97282000Y-82550000D03*
X94742000Y-82550000D03*
X97282000Y-85090000D03*
D15*
X94742000Y-85090000D03*
D16*
X118811000Y-81423000D03*
X120711000Y-81423000D03*
X119761000Y-83423000D03*
D17*
X106139000Y-92202000D03*
X106139000Y-90932000D03*
X106139000Y-89662000D03*
X106139000Y-88392000D03*
X106139000Y-87122000D03*
X106139000Y-85852000D03*
X106139000Y-84582000D03*
X111539000Y-84582000D03*
X111539000Y-85852000D03*
X111539000Y-87122000D03*
X111539000Y-88392000D03*
X111539000Y-89662000D03*
X111539000Y-90932000D03*
X111539000Y-92202000D03*
D18*
X205391000Y-91821000D03*
X207391000Y-91821000D03*
X198152000Y-82042000D03*
X200152000Y-82042000D03*
X194469000Y-96393000D03*
X196469000Y-96393000D03*
D19*
X183134000Y-95266000D03*
X183134000Y-97266000D03*
D18*
X151019000Y-69342000D03*
X153019000Y-69342000D03*
D19*
X121031000Y-95155000D03*
X121031000Y-97155000D03*
D18*
X107982000Y-96266000D03*
X109982000Y-96266000D03*
X104172000Y-82042000D03*
X106172000Y-82042000D03*
X96425000Y-91821000D03*
X98425000Y-91821000D03*
X115713000Y-108331000D03*
X117713000Y-108331000D03*
X150638000Y-118999000D03*
X152638000Y-118999000D03*
X186452000Y-108331000D03*
X188452000Y-108331000D03*
X172609000Y-61976000D03*
X174609000Y-61976000D03*
X151400000Y-54737000D03*
X153400000Y-54737000D03*
X129556000Y-61976000D03*
X131556000Y-61976000D03*
X120745000Y-78867000D03*
X118745000Y-78867000D03*
D19*
X119380000Y-85233000D03*
X119380000Y-87233000D03*
X103124000Y-92472000D03*
X103124000Y-94472000D03*
M02*
